<svg xmlns="http://www.w3.org/2000/svg" viewBox="0 0 16 16" width="16px" height="16px"><path fill="#ffb5d2" d="M12.579,8.255C10.5,8.5,11.5,11.5,12.956,11.2C13.664,10.639,13.893,8.994,12.579,8.255 L12.579,8.255z"/><path fill="#ea4c89" d="M12.751,11.722c-0.477,0-0.935-0.229-1.291-0.653c-0.531-0.634-0.711-1.558-0.438-2.248 c0.238-0.599,0.77-0.977,1.498-1.062l0.162-0.02l0.142,0.08c0.708,0.398,1.132,1.054,1.194,1.845 c0.061,0.761-0.234,1.518-0.752,1.928l-0.093,0.074l-0.117,0.023C12.954,11.711,12.853,11.722,12.751,11.722z M12.475,8.779 c-0.267,0.063-0.438,0.198-0.522,0.409c-0.14,0.353-0.021,0.884,0.273,1.237c0.115,0.137,0.291,0.288,0.51,0.295 c0.178-0.204,0.319-0.571,0.287-0.978C12.999,9.456,12.883,9.069,12.475,8.779z"/><path fill="#ffb5d2" d="M3.421,8.255C5.5,8.5,4.5,11.5,3.044,11.2C2.336,10.639,2.107,8.994,3.421,8.255L3.421,8.255z"/><path fill="#ea4c89" d="M3.249,11.722c-0.102,0-0.203-0.011-0.306-0.032l-0.117-0.023l-0.093-0.074 c-0.518-0.41-0.813-1.167-0.752-1.928c0.063-0.791,0.486-1.446,1.194-1.845l0.142-0.08l0.162,0.02 c0.729,0.085,1.26,0.463,1.498,1.062c0.273,0.69,0.094,1.614-0.438,2.248C4.184,11.493,3.726,11.722,3.249,11.722z M3.525,8.779 c-0.408,0.29-0.524,0.677-0.548,0.964c-0.032,0.406,0.109,0.773,0.287,0.978c0.219-0.007,0.395-0.158,0.51-0.295 c0.295-0.354,0.413-0.885,0.273-1.237C3.964,8.978,3.792,8.843,3.525,8.779z"/><path fill="#ffb5d2" d="M12.322,11.226c-0.467-0.356-1.613-0.324-2.24,0.374c-0.548,0.632-0.377,2.208,0.023,2.579 c0.382,0.288,1.408,0.248,2.165-0.787C12.821,12.696,12.636,11.535,12.322,11.226z"/><path fill="#ea4c89" d="M10.659,14.833c-0.332,0-0.635-0.089-0.855-0.256c-0.658-0.606-0.801-2.495-0.1-3.305 c0.792-0.879,2.243-0.96,2.921-0.443l0.048,0.041c0.495,0.486,0.688,1.948-0.01,2.832c-0.449,0.614-1.063,1.014-1.718,1.11 C10.849,14.826,10.753,14.833,10.659,14.833z M10.448,13.812c0.016,0,0.144,0.043,0.353,0.011c0.224-0.032,0.66-0.171,1.066-0.726 c0.387-0.49,0.253-1.294,0.118-1.495c-0.289-0.169-1.094-0.154-1.532,0.333c-0.355,0.411-0.227,1.646-0.006,1.879 C10.446,13.813,10.446,13.812,10.448,13.812z"/><path fill="#ffb5d2" d="M5.442,12.023c0.548,0.632,0.853,1.785,0.453,2.156c-0.382,0.288-1.408,0.248-2.166-0.787 c-0.55-0.695-0.366-1.857-0.052-2.165C4.145,10.871,4.815,11.326,5.442,12.023L5.442,12.023z"/><path fill="#ea4c89" d="M5.335,14.833c-0.092,0-0.186-0.007-0.28-0.021c-0.654-0.097-1.269-0.496-1.729-1.126 c-0.688-0.867-0.495-2.33,0.001-2.816c0.498-0.385,1.286-0.514,2.486,0.819l0.006,0.007c0.634,0.73,1.11,2.204,0.415,2.85 C5.982,14.739,5.671,14.833,5.335,14.833z M4.05,11.605c-0.03,0-0.054,0.007-0.069,0.019c-0.09,0.115-0.25,0.963,0.141,1.457 c0.418,0.57,0.854,0.709,1.078,0.741c0.233,0.035,0.364-0.021,0.394-0.042c0.063-0.126-0.094-0.925-0.526-1.426 C4.558,11.789,4.207,11.605,4.05,11.605z"/><path fill="#ffb5d2" d="M8,11c-1.2,0.006-2.217,1.221-2.211,2.311C5.796,14.401,6.8,15.527,8,15.521 c1.2-0.006,2.217-1.121,2.211-2.211C10.204,12.221,9.2,10.994,8,11z"/><path fill="#ea4c89" d="M7.991,16.021c-1.407,0-2.693-1.287-2.702-2.708c-0.004-0.661,0.282-1.354,0.784-1.902 c0.527-0.575,1.229-0.908,1.925-0.911c0.003,0,0.007,0,0.011,0c1.513,0,2.694,1.506,2.702,2.808 c0.004,0.66-0.286,1.339-0.794,1.863c-0.521,0.537-1.22,0.848-1.915,0.851C7.999,16.021,7.995,16.021,7.991,16.021z M8.009,11.5 c-0.002,0-0.004,0-0.007,0c-0.417,0.002-0.852,0.216-1.19,0.586c-0.329,0.36-0.524,0.816-0.522,1.222 c0.005,0.778,0.765,1.714,1.701,1.714c0.003,0,0.005,0,0.008,0c0.428-0.002,0.865-0.201,1.201-0.547 c0.322-0.333,0.514-0.767,0.512-1.161C9.706,12.495,8.92,11.5,8.009,11.5z"/><path fill="#ffb5d2" d="M6.5,5.5C5.133,5.273,3.573,6.264,3.619,7.724C3.619,9.547,8.5,8.5,6.5,5.5z"/><path fill="#ea4c89" d="M4.831,9.124c-0.268,0-0.521-0.038-0.741-0.113C3.482,8.804,3.119,8.323,3.119,7.724 c-0.023-0.74,0.296-1.448,0.901-1.978c0.69-0.604,1.674-0.89,2.562-0.739l0.214,0.035l0.12,0.181 c0.949,1.424,0.498,2.409,0.145,2.869C6.52,8.796,5.614,9.124,4.831,9.124z M6.099,5.967c-0.509,0-1.031,0.192-1.42,0.532 c-0.266,0.232-0.578,0.63-0.56,1.209c0,0.094,0,0.257,0.292,0.355c0.517,0.178,1.439-0.038,1.856-0.581 C6.574,7.083,6.553,6.575,6.204,5.97C6.169,5.968,6.134,5.967,6.099,5.967z"/><path fill="#ffb5d2" d="M9.5,5.5c1.367-0.227,2.927,0.764,2.881,2.224C12.381,9.547,7.5,8.5,9.5,5.5z"/><path fill="#ea4c89" d="M11.169,9.124c-0.783,0-1.688-0.328-2.229-1.032c-0.354-0.46-0.805-1.445,0.145-2.869l0.12-0.181 l0.214-0.035c0.891-0.152,1.871,0.136,2.562,0.739c0.605,0.529,0.925,1.237,0.901,1.993c0,0.584-0.363,1.064-0.971,1.271 C11.69,9.086,11.437,9.124,11.169,9.124z M9.796,5.97c-0.349,0.605-0.37,1.113-0.063,1.513c0.417,0.543,1.342,0.759,1.856,0.581 c0.292-0.099,0.292-0.262,0.292-0.34c0.019-0.595-0.294-0.992-0.56-1.225C10.906,6.136,10.338,5.937,9.796,5.97z"/><path fill="#ffb5d2" d="M8,5C7.021,5,6.5,5.991,6.5,6.5c0,1,0.519,1.718,1.5,1.711C8.981,8.218,9.5,7.5,9.5,6.5 C9.5,5.991,8.979,5,8,5z"/><path fill="#ea4c89" d="M8.014,8.711c-0.01,0-0.021,0-0.034,0c-0.541,0-1.016-0.184-1.365-0.531C6.212,7.781,6,7.2,6,6.5 c0-0.718,0.668-2,2-2s2,1.282,2,2c0,0.7-0.212,1.281-0.614,1.68C9.036,8.527,8.562,8.711,8.014,8.711z M7.996,7.711 c0.004,0,0.008,0,0.011,0c0.289,0,0.514-0.081,0.675-0.24C8.887,7.267,9,6.922,9,6.5c0-0.232-0.312-1-1-1s-1,0.768-1,1 c0,0.422,0.113,0.767,0.318,0.971C7.48,7.631,7.67,7.701,7.996,7.711z"/><path fill="#ffb5d2" d="M7.166,7.773C6.311,7.221,5.078,7.577,4.413,8.569c-0.665,0.991-0.511,2.152,0.344,2.704 c0.855,0.552,2.088,0.196,2.753-0.796C8.32,9.407,8.07,8.314,7.166,7.773z"/><path fill="#ea4c89" d="M5.66,12.03c-0.412,0-0.817-0.108-1.174-0.338c-0.487-0.314-0.82-0.802-0.938-1.373 C3.409,9.65,3.569,8.93,3.998,8.29c0.813-1.211,2.35-1.633,3.432-0.941C7.98,7.68,8.348,8.187,8.462,8.774 c0.127,0.653-0.069,1.365-0.553,2.004C7.374,11.578,6.503,12.03,5.66,12.03z M6.258,8.012c-0.517,0-1.073,0.304-1.43,0.835 c-0.277,0.415-0.385,0.866-0.301,1.271c0.064,0.311,0.237,0.564,0.502,0.735c0.625,0.404,1.555,0.111,2.066-0.654 C7.426,9.76,7.554,9.342,7.48,8.966C7.42,8.653,7.223,8.39,6.909,8.203l-0.015-0.01C6.704,8.07,6.485,8.012,6.258,8.012z"/><path fill="#ffb5d2" d="M8.834,7.773c0.855-0.552,2.088-0.196,2.753,0.796c0.665,0.991,0.511,2.152-0.344,2.704 c-0.855,0.552-2.088,0.196-2.753-0.796C7.68,9.407,7.93,8.314,8.834,7.773z"/><path fill="#ea4c89" d="M10.344,12.03c-0.845,0-1.723-0.458-2.27-1.275c-0.467-0.615-0.663-1.327-0.536-1.98 C7.652,8.187,8.02,7.68,8.57,7.349c1.082-0.691,2.619-0.27,3.432,0.941c0.429,0.64,0.589,1.36,0.45,2.029 c-0.118,0.571-0.451,1.059-0.938,1.373C11.159,11.921,10.755,12.03,10.344,12.03z M9.742,8.012c-0.228,0-0.446,0.059-0.637,0.182 l-0.015,0.01C8.777,8.39,8.58,8.653,8.52,8.966C8.446,9.342,8.574,9.76,8.888,10.175c0.529,0.788,1.458,1.08,2.083,0.678 c0.265-0.171,0.438-0.425,0.502-0.735c0.084-0.404-0.023-0.855-0.301-1.271C10.815,8.315,10.259,8.012,9.742,8.012z"/><path fill="#bae0bd" d="M8.352,3.465C7.904,2.824,7.641,1.198,9.11,0.432c1.927-1.005,4.53,0.225,4.53,0.225 c-0.253,1.769-0.588,3.369-2.194,4.154C10.182,5.43,8.81,4.119,8.352,3.465z"/><path fill="#5e9c76" d="M10.878,1.037c0.613,0,1.209,0.137,1.645,0.27c-0.254,1.384-0.617,2.165-1.516,2.605 c-0.084,0.041-0.166,0.06-0.258,0.06c-0.536,0-1.26-0.628-1.578-1.081c-0.11-0.157-0.231-0.563-0.14-0.934 C9.1,1.679,9.272,1.476,9.573,1.319C9.931,1.132,10.371,1.037,10.878,1.037 M10.878,0.037c-0.593,0-1.209,0.104-1.768,0.395 C7.641,1.198,7.904,2.824,8.352,3.465C8.727,4,9.712,4.973,10.749,4.973c0.232,0,0.467-0.049,0.698-0.162 c1.605-0.785,1.941-2.385,2.194-4.154C13.641,0.657,12.329,0.037,10.878,0.037L10.878,0.037z"/><path fill="#bae0bd" d="M7.648,3.465c0.448-0.64,0.711-2.266-0.758-3.032c-1.927-1.005-4.53,0.225-4.53,0.225 c0.253,1.769,0.588,3.369,2.194,4.154C5.818,5.43,7.19,4.119,7.648,3.465z"/><path fill="#5e9c76" d="M5.122,1.037c0.508,0,0.947,0.095,1.306,0.282C6.728,1.476,6.9,1.679,6.968,1.958 c0.091,0.371-0.03,0.776-0.14,0.934C6.511,3.345,5.786,3.973,5.251,3.973c-0.093,0-0.175-0.019-0.258-0.06 c-0.899-0.44-1.262-1.221-1.516-2.605C3.913,1.174,4.509,1.037,5.122,1.037 M5.122,0.037c-1.451,0-2.762,0.62-2.762,0.62 c0.253,1.769,0.588,3.369,2.194,4.154c0.231,0.113,0.466,0.162,0.698,0.162c1.038,0,2.023-0.973,2.397-1.508 c0.448-0.64,0.711-2.266-0.758-3.032C6.33,0.141,5.714,0.037,5.122,0.037L5.122,0.037z"/></svg>