<svg xmlns="http://www.w3.org/2000/svg" viewBox="0 0 80 80" width="16px" height="16px"><circle cx="40" cy="48" r="24.5" fill="#f78f8f"/><path fill="#ea4c89" d="M40,73c-13.785,0-25-11.215-25-25s11.215-25,25-25s25,11.215,25,25S53.785,73,40,73z M40,24 c-13.233,0-24,10.767-24,24s10.767,24,24,24s24-10.767,24-24S53.233,24,40,24z"/><path fill="#bae0bd" d="M44.5,17.5c0,0-7-6,3-12c7.376-4.426,18,1,18,1c-1,7-2.538,12.128-9,15 C47.5,25.5,44.5,17.5,44.5,17.5z"/><path fill="#5e9c76" d="M51.795,23.122c-1.098,0-2.133-0.203-3.101-0.608c-3.027-1.269-4.354-4.096-4.615-4.72 c-0.498-0.461-2.696-2.682-2.44-5.711c0.215-2.55,2.101-4.909,5.604-7.011c7.524-4.517,18.04,0.757,18.484,0.983l0.318,0.163 l-0.051,0.354c-0.939,6.576-2.287,12.273-9.292,15.386C54.957,22.733,53.315,23.122,51.795,23.122z M54.37,4.271 c-2.263,0-4.576,0.436-6.613,1.658c-3.208,1.925-4.932,4.021-5.121,6.23c-0.243,2.827,2.166,4.941,2.19,4.962l0.096,0.083 l0.046,0.12c0.012,0.03,1.182,3.045,4.123,4.272c2.042,0.851,4.465,0.666,7.206-0.553c5.846-2.598,7.589-7.026,8.655-14.251 C63.726,6.224,59.161,4.271,54.37,4.271z"/><path fill="#5e9c76" d="M44.916,17.777l-0.832-0.555c2.102-3.152,8.18-7.19,14.334-8.216l0.164,0.986 C52.878,10.944,46.91,14.786,44.916,17.777z"/><path fill="#bae0bd" d="M35.5,17.5c0,0,7-6-3-12c-7.376-4.426-18,1-18,1c1,7,2.538,12.128,9,15 C32.5,25.5,35.5,17.5,35.5,17.5z"/><path fill="#5e9c76" d="M28.205,23.122c-1.521,0-3.162-0.389-4.908-1.165c-7.005-3.113-8.353-8.81-9.292-15.386 l-0.051-0.354l0.318-0.163c0.443-0.227,10.959-5.501,18.484-0.983c3.504,2.102,5.39,4.461,5.604,7.011 c0.256,3.029-1.942,5.25-2.44,5.711c-0.262,0.624-1.588,3.451-4.615,4.72C30.338,22.919,29.303,23.122,28.205,23.122z M15.048,6.792c1.066,7.225,2.81,11.653,8.655,14.251c2.739,1.218,5.163,1.404,7.206,0.553c2.941-1.227,4.111-4.242,4.123-4.272 l0.045-0.119l0.097-0.084c0.024-0.021,2.434-2.135,2.19-4.962c-0.189-2.208-1.913-4.305-5.121-6.23 C25.891,2.118,16.854,5.955,15.048,6.792z"/><path fill="#5e9c76" d="M35.084,17.777c-1.994-2.992-7.962-6.833-13.666-7.784l0.164-0.986 c6.154,1.026,12.232,5.063,14.334,8.216L35.084,17.777z"/><path fill="#ffb5d2" d="M48.961,57.08c0.026,4.401-4.115,8.396-8.961,8.42c-4.846,0.023-8.562-3.934-8.587-8.336 c0-0.028,0-0.056,0-0.084c-0.025-4.401,3.742-7.557,8.587-7.58c4.846-0.023,8.935,3.095,8.961,7.496 C48.961,57.024,48.961,57.052,48.961,57.08z"/><path fill="#ea4c89" d="M39.957,66c-4.963,0-9.016-3.953-9.044-8.833v-0.104c-0.013-2.046,0.746-3.911,2.192-5.374 c1.702-1.721,4.149-2.675,6.893-2.688c0.019,0,0.038,0,0.057,0c5.254,0,9.38,3.502,9.406,7.993v0.084 c0.013,2.247-1.011,4.513-2.81,6.218c-1.803,1.707-4.226,2.693-6.649,2.705C39.987,66,39.972,66,39.957,66z M40.055,50 c-0.018,0-0.035,0-0.053,0c-2.475,0.012-4.671,0.861-6.186,2.392c-1.256,1.271-1.914,2.891-1.903,4.686 C31.938,61.419,35.618,65,39.959,65c0.014,0,0.025,0,0.039,0c2.171-0.011,4.346-0.896,5.965-2.432 c1.599-1.515,2.51-3.514,2.498-5.485v-0.087C48.438,53.066,44.75,50,40.055,50z"/><path fill="#ffb5d2" d="M45.093,33.89c-3.843,2.298-4.906,7.329-1.464,11.878c2.827,4.214,8.066,5.728,11.702,3.382l0,0 c3.636-2.346,4.291-7.664,1.464-11.878C53.968,33.058,48.729,31.544,45.093,33.89L45.093,33.89z"/><path fill="#ea4c89" d="M51.501,50.749c-3.061,0.001-6.269-1.694-8.287-4.703c-1.777-2.347-2.501-5.007-2.022-7.468 c0.417-2.141,1.708-3.957,3.638-5.112c3.856-2.482,9.409-0.901,12.381,3.528c1.576,2.348,2.18,5.147,1.657,7.681 c-0.427,2.074-1.587,3.813-3.265,4.896C54.363,50.37,52.948,50.749,51.501,50.749z M48.933,33.287 c-1.264,0-2.493,0.329-3.568,1.023l-0.015,0.009c-1.687,1.008-2.814,2.588-3.177,4.449c-0.423,2.179,0.235,4.558,1.854,6.697 c2.688,4.005,7.63,5.461,11.032,3.265c1.451-0.937,2.456-2.449,2.829-4.259c0.468-2.271-0.082-4.794-1.509-6.921 C54.553,34.828,51.664,33.287,48.933,33.287z"/><path fill="#ffb5d2" d="M62.695,37.963c-3.926-1.036-1.325,15.996,1.869,14.598C68.077,49.777,69.209,41.626,62.695,37.963 L62.695,37.963z"/><path fill="#ea4c89" d="M64.19,53.141c-0.391,0-0.881-0.165-1.39-0.754c-2.075-2.402-3.549-11.381-1.847-14.106 c0.447-0.716,1.11-1.002,1.869-0.801l0.117,0.047c2.918,1.642,4.666,4.333,4.923,7.578c0.244,3.085-0.957,6.238-2.988,7.848 l-0.11,0.066C64.621,53.082,64.424,53.141,64.19,53.141z M62.363,38.416c-0.18,0-0.368,0.086-0.561,0.394 c-1.365,2.187-0.217,10.641,1.755,12.923c0.386,0.447,0.629,0.43,0.752,0.392c1.747-1.426,2.773-4.203,2.557-6.94 c-0.228-2.881-1.773-5.276-4.356-6.751C62.462,38.422,62.413,38.416,62.363,38.416z"/><path fill="#ffb5d2" d="M49.531,25.255c6.774-1.127,12.41,2.837,12.183,10.073C61.491,38.102,47.035,25.668,49.531,25.255z"/><path fill="#ea4c89" d="M61.25,36.231c-2.393,0.001-12.325-8.401-12.506-10.579c-0.038-0.464,0.238-0.813,0.704-0.89l0,0 c3.65-0.607,7.107,0.232,9.478,2.307c2.227,1.948,3.395,4.886,3.288,8.274C62.17,35.899,61.802,36.23,61.25,36.231L61.25,36.231z M49.775,25.723c0.378,1.04,3.823,4.508,7.451,7.215c2.426,1.81,3.615,2.285,3.988,2.297c0.081-3.091-0.938-5.654-2.947-7.413 C56.158,25.977,53.07,25.215,49.775,25.723z M49.53,25.255l0.074,0.495c0.002,0,0.005-0.001,0.007-0.002L49.53,25.255z"/><path fill="#ffb5d2" d="M40,22.5L40,22.5c-3.587-0.039-7.518,2.479-7.5,5c0.016,2.225,2.635,4.039,7.5,4.005 c4.865,0.034,7.484-1.78,7.5-4.005C47.518,24.979,43.587,22.461,40,22.5L40,22.5z"/><path fill="#ea4c89" d="M40.133,32.005c-0.09,0-0.182,0-0.272,0c-2.322,0-4.286-0.422-5.678-1.222 c-1.398-0.804-2.174-1.969-2.183-3.28c-0.007-0.977,0.474-1.976,1.39-2.888c1.594-1.588,4.266-2.63,6.61-2.615 c0.026,0,0.053,0,0.078,0c2.341,0,4.955,1.045,6.532,2.616c0.916,0.913,1.396,1.911,1.39,2.888 c-0.009,1.311-0.784,2.476-2.183,3.28C44.426,31.583,42.462,32.005,40.133,32.005z M39.996,31.005 c2.201,0.037,4.058-0.361,5.323-1.089c1.093-0.628,1.674-1.465,1.681-2.419c0.005-0.703-0.374-1.454-1.096-2.173 C44.504,23.928,42.172,23,40.081,23c-0.025,0-0.051,0-0.075,0h-0.012c-0.024,0-0.05,0-0.075,0c-2.092,0-4.423,0.928-5.823,2.324 c-0.722,0.719-1.101,1.47-1.096,2.173c0.007,0.955,0.588,1.791,1.681,2.419C35.947,30.644,37.786,31.028,39.996,31.005z"/><path fill="#ffb5d2" d="M40,67.5c3.525-0.152,8.491,1.316,8.5,3c0.058,1.636-4.292,5.071-8.5,5 c-4.358,0.185-8.556-3.717-8.5-5C31.435,68.619,36.497,67.414,40,67.5L40,67.5z"/><path fill="#ea4c89" d="M39.671,76.007c-2.991,0-5.827-1.756-7.374-3.306c-0.499-0.499-1.33-1.451-1.297-2.223 c-0.017-0.437,0.182-0.886,0.588-1.296c1.423-1.438,5.468-2.254,8.407-2.183c2.742-0.127,6.842,0.772,8.371,2.229 c0.418,0.398,0.632,0.825,0.634,1.268c0.028,0.785-0.626,1.626-1.18,2.19c-1.602,1.632-4.73,3.386-7.829,3.313 C39.885,76.005,39.777,76.007,39.671,76.007z M39.656,67.996c-2.661,0-6.224,0.744-7.358,1.89 c-0.204,0.207-0.305,0.408-0.298,0.597c-0.008,0.213,0.258,0.766,1.004,1.512c1.574,1.577,4.36,3.118,6.975,3.006 c0.042,0.001,0.083,0.002,0.124,0.002c2.787,0,5.568-1.552,7.004-3.015c0.673-0.687,0.903-1.209,0.894-1.47 c-0.001-0.215-0.177-0.424-0.323-0.564c-1.199-1.143-4.844-2.091-7.655-1.953h-0.034C39.879,67.997,39.769,67.996,39.656,67.996z"/><path fill="#ffb5d2" d="M52.681,56.639c-2.715,3.133-4.227,8.846-2.246,10.686c1.894,1.43,6.978,1.23,10.734-3.903 c2.727-3.447,1.813-9.204,0.256-10.733C59.11,50.927,55.788,53.183,52.681,56.639L52.681,56.639z"/><path fill="#ea4c89" d="M53.188,68.589c-1.216,0-2.311-0.302-3.055-0.863c-2.282-2.118-0.672-8.134,2.17-11.413l0.006-0.007 c4.935-5.491,7.846-5.212,9.418-4.014c1.7,1.664,2.769,7.731-0.166,11.441c-2.642,3.61-5.674,4.54-7.245,4.771 C53.933,68.562,53.555,68.589,53.188,68.589z M53.058,56.967L53.058,56.967c-2.717,3.136-3.933,8.459-2.282,9.993 c0.708,0.532,2.023,0.76,3.395,0.556c1.417-0.208,4.157-1.056,6.595-4.388c2.676-3.384,1.596-8.818,0.309-10.082 C58.765,51.29,55.06,54.742,53.058,56.967z"/><path fill="#ffb5d2" d="M34.907,33.89c3.843,2.298,4.906,7.329,1.464,11.878c-2.827,4.214-8.066,5.728-11.702,3.382l0,0 c-3.636-2.346-4.291-7.664-1.464-11.878C26.032,33.058,31.271,31.544,34.907,33.89L34.907,33.89z"/><path fill="#ea4c89" d="M28.503,50.75c-1.448,0-2.865-0.379-4.105-1.18c-1.678-1.083-2.838-2.822-3.265-4.896 c-0.522-2.533,0.081-5.333,1.657-7.681c2.971-4.429,8.524-6.012,12.381-3.528c1.93,1.156,3.221,2.971,3.638,5.112 c0.479,2.461-0.245,5.122-2.039,7.492C34.764,49.061,31.561,50.75,28.503,50.75z M31.067,33.287c-2.731,0-5.62,1.541-7.447,4.264 c-1.427,2.126-1.977,4.649-1.509,6.921c0.373,1.81,1.378,3.322,2.829,4.259c3.402,2.194,8.345,0.741,11.016-3.241 c1.636-2.163,2.294-4.542,1.871-6.721c-0.362-1.861-1.49-3.441-3.177-4.449l-0.015-0.009 C33.561,33.616,32.331,33.287,31.067,33.287z"/><path fill="#ffb5d2" d="M17.305,37.963c3.926-1.036,1.325,15.996-1.869,14.598C11.923,49.777,10.791,41.626,17.305,37.963 L17.305,37.963z"/><path fill="#ea4c89" d="M15.81,53.141c-0.233,0-0.431-0.059-0.574-0.122l-0.11-0.066c-2.031-1.609-3.232-4.763-2.988-7.848 c0.257-3.245,2.005-5.937,4.923-7.578l0.117-0.047c0.758-0.201,1.423,0.085,1.869,0.801c1.702,2.726,0.229,11.704-1.847,14.106 C16.69,52.976,16.2,53.141,15.81,53.141z M15.69,52.124c0.125,0.039,0.365,0.056,0.752-0.392c1.972-2.282,3.12-10.736,1.755-12.923 c-0.245-0.393-0.484-0.423-0.707-0.377c-2.583,1.476-4.129,3.871-4.356,6.751C12.917,47.921,13.943,50.698,15.69,52.124z"/><path fill="#ffb5d2" d="M30.469,25.255c-6.774-1.127-12.41,2.837-12.183,10.073C18.509,38.102,32.965,25.668,30.469,25.255z"/><path fill="#ea4c89" d="M18.75,36.231C18.749,36.231,18.749,36.231,18.75,36.231c-0.552-0.001-0.92-0.332-0.962-0.863 c-0.108-3.412,1.06-6.351,3.286-8.298c2.37-2.074,5.826-2.914,9.478-2.307c0.466,0.077,0.742,0.426,0.704,0.89 C31.075,27.83,21.144,36.23,18.75,36.231z M28.25,25.569c-2.533,0-4.836,0.782-6.518,2.253c-2.01,1.758-3.028,4.319-2.949,7.413 c0.372-0.01,1.561-0.484,3.99-2.297c3.628-2.707,7.073-6.175,7.451-7.215C29.556,25.62,28.896,25.569,28.25,25.569z"/><path fill="#ffb5d2" d="M27.319,56.639c2.715,3.133,4.227,8.846,2.246,10.686c-1.894,1.43-6.978,1.23-10.734-3.903 c-2.727-3.447-1.813-9.204-0.256-10.733C20.89,50.927,24.212,53.183,27.319,56.639L27.319,56.639z"/><path fill="#ea4c89" d="M26.805,68.589c-0.365,0-0.74-0.027-1.12-0.084c-1.571-0.231-4.604-1.161-7.256-4.787 c-2.924-3.694-1.855-9.762-0.203-11.385c1.62-1.24,4.529-1.52,9.466,3.972l0.006,0.008c2.842,3.279,4.452,9.295,2.209,11.38 C29.13,68.28,28.025,68.589,26.805,68.589z M20.387,52.586c-0.539,0-1.048,0.151-1.508,0.501 c-1.239,1.223-2.319,6.657,0.346,10.025c2.448,3.348,5.188,4.195,6.605,4.403c1.365,0.201,2.686-0.023,3.434-0.589 c1.611-1.5,0.396-6.82-2.319-9.956C25.333,55.179,22.616,52.586,20.387,52.586z"/></svg>